# xmcd
#
# Track frame offsets:
#	182
#	16537
#	39050
#	53345
#	68482
#	80132
#	99872
#	119552
#	138047
#	152395
#	176912
#	196997
#	221247
#	238307
#	250490
#	262057
#
# Disc length: 3757 seconds
#
# Revision: 2
# Processed by: cddbd v1.4PL0 Copyright (c) Steve Scherf et al.
# Submitted via: EZCDDA 4.3.2
#
DISCID=d20eab10
DTITLE=Junior Wells - Warner Blues - Les Incontrounables
DYEAR=1900
DGENRE=
TTITLE0=Shake it baby
TTITLE1=Vietcong blues
TTITLE2=My baby she left me (she left me a mule to ride)
TTITLE3=Five long years
TTITLE4=Shotgun blues
TTITLE5=Stormy monday blues
TTITLE6=Come on in this house-have mercy
TTITLE7=Help me (A tribute to Sonny Boy Williamson)
TTITLE8=Checking on my baby
TTITLE9=Tobacco road
TTITLE10=I don't know
TTITLE11=Slow, slow
TTITLE12=All night long
TTITLE13=I'm your hoochie coochie man
TTITLE14=When my baby left me
TTITLE15=It's my life, baby
EXTD=
EXTT0=
EXTT1=
EXTT2=
EXTT3=
EXTT4=
EXTT5=
EXTT6=
EXTT7=
EXTT8=
EXTT9=
EXTT10=
EXTT11=
EXTT12=
EXTT13=
EXTT14=
EXTT15=
PLAYORDER=
